<svg width="125" height="25" viewBox="0 0 125 25" fill="none" xmlns="http://www.w3.org/2000/svg">
<path d="M40.7188 0.795366C41.5462 0.662257 42.3637 0.595703 43.1687 0.595703C43.9737 0.595703 44.8012 0.662257 45.6537 0.795366V24.5997C44.8037 24.7328 43.9862 24.7993 43.2037 24.7993C42.3762 24.7993 41.5462 24.7328 40.7188 24.5997V0.795366Z" fill="white"/>
<path d="M50.3566 7.48331C50.6691 7.41676 50.9841 7.36746 51.2966 7.33541C51.6091 7.30337 51.9566 7.28611 52.3366 7.28611C52.7166 7.28611 53.0516 7.30337 53.3441 7.33541C53.6341 7.36746 53.9366 7.41922 54.2516 7.48331C54.3191 7.59423 54.3791 7.75446 54.4366 7.96398C54.4916 8.1735 54.5416 8.39535 54.5866 8.62706C54.6316 8.85877 54.6716 9.08555 54.7041 9.30493C54.7366 9.52678 54.7666 9.71411 54.7891 9.86694C55.0116 9.53664 55.2816 9.20386 55.5941 8.87356C55.9066 8.54325 56.2715 8.24499 56.6865 7.97877C57.1015 7.71502 57.564 7.4981 58.079 7.33295C58.594 7.16779 59.164 7.08398 59.7915 7.08398C61.7615 7.08398 63.244 7.61395 64.2415 8.67389C65.2365 9.73383 65.7365 11.4002 65.7365 13.6729V24.5976C64.9315 24.7308 64.1365 24.7973 63.3515 24.7973C62.5665 24.7973 61.774 24.7308 60.9665 24.5976V14.93C60.9665 13.737 60.7815 12.8225 60.4115 12.1816C60.0415 11.5407 59.399 11.2202 58.4815 11.2202C58.1015 11.2202 57.709 11.2744 57.3065 11.3854C56.904 11.4963 56.539 11.7107 56.214 12.0312C55.8891 12.3516 55.6266 12.7978 55.4241 13.3721C55.2216 13.9465 55.1216 14.6958 55.1216 15.6227V24.5952C54.3166 24.7283 53.5216 24.7948 52.7366 24.7948C51.9516 24.7948 51.1591 24.7283 50.3516 24.5952V7.48331H50.3566Z" fill="white"/>
<path d="M71.2091 11.0604H68.4566C68.3891 10.7079 68.3441 10.3874 68.3216 10.099C68.2991 9.81307 68.2891 9.51481 68.2891 9.20423C68.2891 8.91829 68.2991 8.64221 68.3216 8.37599C68.3441 8.11224 68.3891 7.81398 68.4566 7.48121H71.2091V6.65297C71.2091 5.59303 71.3716 4.64895 71.6966 3.82318C72.0216 2.99495 72.4865 2.29982 73.089 1.73781C73.694 1.17579 74.4165 0.744423 75.254 0.446161C76.094 0.147899 77.0165 0 78.024 0C78.6965 0 79.2615 0.0271148 79.719 0.0838092C80.1765 0.138039 80.6765 0.244033 81.214 0.399326C81.169 1.12649 81.0965 1.78464 80.9965 2.36884C80.8965 2.95304 80.734 3.53231 80.509 4.10665C80.2615 4.06228 80.0065 4.01298 79.7365 3.95875C79.469 3.90452 79.109 3.87494 78.6615 3.87494C77.8765 3.87494 77.239 4.05735 76.7465 4.42217C76.254 4.78699 75.984 5.56345 75.9415 6.7565V7.48367H79.9715C80.039 7.83616 80.084 8.15661 80.1065 8.44501C80.129 8.73095 80.139 9.02921 80.139 9.3398C80.139 9.62574 80.1265 9.90181 80.1065 10.168C80.084 10.4318 80.039 10.73 79.9715 11.0628H75.9415V24.6029C75.1365 24.736 74.3515 24.8026 73.5915 24.8026C72.8316 24.8026 72.0141 24.736 71.2066 24.6029V11.0628L71.2091 11.0604Z" fill="white"/>
<path d="M83.3619 7.48431C83.6969 7.41775 84.0169 7.36845 84.3194 7.33641C84.6219 7.30436 84.9519 7.28711 85.3094 7.28711C85.6444 7.28711 85.9744 7.30929 86.2994 7.35366C86.6244 7.39803 86.9419 7.45226 87.2569 7.51882C87.3244 7.62974 87.3844 7.78996 87.4419 7.99949C87.4969 8.20901 87.5469 8.43086 87.5919 8.66257C87.6369 8.89427 87.6769 9.12598 87.7094 9.35769C87.7419 9.5894 87.7719 9.78413 87.7944 9.93696C88.2869 9.25416 88.8919 8.64038 89.6069 8.10055C90.3219 7.56072 91.2194 7.28957 92.2919 7.28957C92.5143 7.28957 92.7718 7.3019 93.0643 7.32162C93.3543 7.3438 93.5669 7.37585 93.7019 7.42022C93.7469 7.64207 93.7793 7.89596 93.8018 8.1819C93.8243 8.46783 93.8344 8.7661 93.8344 9.07668C93.8344 9.45136 93.8168 9.86055 93.7843 10.3018C93.7518 10.743 93.6894 11.1621 93.5993 11.5589C93.3519 11.5145 93.0793 11.4924 92.7768 11.4924H92.2219C91.8419 11.4924 91.4169 11.5318 90.9469 11.6082C90.4769 11.6846 90.0294 11.8892 89.6044 12.2195C89.1794 12.5498 88.8269 13.0478 88.5469 13.7084C88.2669 14.3715 88.1269 15.2983 88.1269 16.4889V24.6332C87.7244 24.6997 87.3219 24.7441 86.9169 24.7663C86.5144 24.7884 86.1219 24.7983 85.7419 24.7983C85.3619 24.7983 84.9744 24.786 84.5844 24.7663C84.1919 24.7441 83.7844 24.6997 83.3594 24.6332V7.48431H83.3619Z" fill="white"/>
<path d="M96.8619 7.48431C97.1969 7.41775 97.5169 7.36845 97.8194 7.33641C98.1219 7.30436 98.4519 7.28711 98.8094 7.28711C99.1444 7.28711 99.4744 7.30929 99.7994 7.35366C100.124 7.39803 100.442 7.45226 100.757 7.51882C100.824 7.62974 100.884 7.78996 100.942 7.99949C100.997 8.20901 101.047 8.43086 101.092 8.66257C101.137 8.89427 101.177 9.12598 101.209 9.35769C101.242 9.5894 101.272 9.78413 101.294 9.93696C101.787 9.25416 102.392 8.64038 103.107 8.10055C103.822 7.56072 104.719 7.28957 105.792 7.28957C106.014 7.28957 106.272 7.3019 106.564 7.32162C106.854 7.3438 107.067 7.37585 107.202 7.42022C107.247 7.64207 107.279 7.89596 107.302 8.1819C107.324 8.46783 107.334 8.7661 107.334 9.07668C107.334 9.45136 107.317 9.86055 107.284 10.3018C107.252 10.743 107.189 11.1621 107.099 11.5589C106.852 11.5145 106.579 11.4924 106.277 11.4924H105.722C105.342 11.4924 104.917 11.5318 104.447 11.6082C103.977 11.6846 103.529 11.8892 103.104 12.2195C102.679 12.5498 102.327 13.0478 102.047 13.7084C101.767 14.3715 101.627 15.2983 101.627 16.4889V24.6332C101.224 24.6997 100.822 24.7441 100.417 24.7663C100.014 24.7884 99.6219 24.7983 99.2419 24.7983C98.8619 24.7983 98.4744 24.786 98.0844 24.7663C97.6919 24.7441 97.2844 24.6997 96.8594 24.6332V7.48431H96.8619Z" fill="white"/>
<path d="M120.265 0.399528C120.668 0.332974 121.065 0.288605 121.458 0.26642C121.85 0.244235 122.235 0.234375 122.615 0.234375C122.995 0.234375 123.388 0.2467 123.79 0.26642C124.193 0.288605 124.595 0.332974 125 0.399528V24.0387C123.948 24.3468 122.88 24.5859 121.793 24.751C120.708 24.9162 119.393 25 117.848 25C116.66 25 115.525 24.8398 114.44 24.5193C113.355 24.1989 112.398 23.6911 111.57 22.996C110.743 22.3008 110.088 21.4011 109.605 20.2968C109.123 19.1925 108.883 17.8466 108.883 16.2567C108.883 14.9996 109.09 13.8115 109.503 12.6973C109.918 11.5831 110.51 10.6169 111.283 9.80095C112.055 8.98504 112.99 8.33922 114.085 7.86348C115.183 7.3902 116.403 7.1511 117.745 7.1511C118.148 7.1511 118.568 7.16836 119.005 7.2004C119.443 7.23245 119.86 7.30639 120.265 7.41485V0.399528ZM120.265 11.026C119.818 10.9151 119.453 10.8436 119.175 10.8116C118.895 10.7795 118.543 10.7623 118.118 10.7623C117.38 10.7623 116.735 10.9102 116.188 11.2085C115.638 11.5067 115.185 11.9036 114.828 12.4015C114.47 12.897 114.208 13.4836 114.038 14.1566C113.87 14.8295 113.785 15.5296 113.785 16.2592C113.785 17.1638 113.898 17.9304 114.12 18.559C114.343 19.1876 114.653 19.6904 115.043 20.0651C115.435 20.4398 115.898 20.7109 116.435 20.8761C116.973 21.0412 117.555 21.1251 118.18 21.1251C118.56 21.1251 118.908 21.1078 119.22 21.0758C119.533 21.0437 119.88 20.9722 120.26 20.8613V11.0285L120.265 11.026Z" fill="white"/>
<path d="M9.9378 11.8247C9.9378 10.0401 10.7528 8.44522 12.0378 7.38281H5.03281C4.45281 8.74841 4.13281 10.2496 4.13281 11.8247H9.9403H9.9378Z" fill="#00CD9B"/>
<path d="M0 0.298828H15.8225C20.1325 0.298828 23.9 2.60112 25.9249 6.0225C25.9324 6.03483 25.9399 6.04962 25.9474 6.06194C26.1974 6.48592 26.4174 6.92715 26.6099 7.38071C27.1899 8.74877 27.5099 10.2475 27.5124 11.8226H21.7075C21.7075 10.038 20.89 8.44311 19.6075 7.38071C18.7475 6.66833 17.6775 6.19259 16.5 6.06194C16.28 6.03483 16.0525 6.0225 15.825 6.0225H5.71999C2.57249 5.93869 0.0399999 3.41702 0 0.298828Z" fill="#00CD9B"/>
<path d="M26.5947 17.6288C27.1872 16.2509 27.5147 14.735 27.5147 13.1426H21.7072C21.7072 14.9494 20.8672 16.564 19.5547 17.6288H26.5947Z" fill="#00CD9B"/>
<path d="M4.13281 13.1426H9.9378C9.9378 14.9494 10.7778 16.564 12.0903 17.6288C13.1078 18.4497 14.4053 18.9451 15.8228 18.9451H25.9253C25.9628 18.9451 26.0003 18.9476 26.0353 18.9501C29.1353 19.0881 31.6078 21.5876 31.6478 24.6688H15.8253C11.5178 24.6688 7.7528 22.3715 5.72531 18.9501C5.72531 18.9501 5.72531 18.9451 5.72281 18.9451C5.47281 18.5236 5.25031 18.0849 5.05531 17.6288C4.46281 16.2509 4.13531 14.7325 4.13531 13.1426H4.13281Z" fill="#00CD9B"/>
</svg>
